{
  "accessors": [
    {
      "bufferView": 3,
      "componentType": 5126,
      "count": 1409,
      "max": [
        6.744794845581055,
        24.764310836791992,
        -3.2286300659179688
      ],
      "min": [
        -7.979800224304199,
        16.438199996948242,
        -6.918848991394043
      ],
      "type": "VEC3"
    },
    {
      "bufferView": 3,
      "byteOffset": 16908,
      "componentType": 5126,
      "count": 1409,
      "max": [
        0.9998722076416016,
        0.9991050958633423,
        0.9994817972183228
      ],
      "min": [
        -0.9983381032943726,
        -0.9944821000099182,
        -0.9997016191482544
      ],
      "type": "VEC3"
    },
    {
      "bufferView": 2,
      "componentType": 5126,
      "count": 1409,
      "max": [
        0.6734285950660706,
        0.9441220760345459
      ],
      "min": [
        0.0,
        0.0
      ],
      "type": "VEC2"
    },
    {
      "bufferView": 1,
      "componentType": 5125,
      "count": 7092,
      "type": "SCALAR"
    },
    {
      "bufferView": 3,
      "byteOffset": 33816,
      "componentType": 5126,
      "count": 4690,
      "max": [
        19.223758697509766,
        23.697694778442383,
        9.815372467041016
      ],
      "min": [
        -19.263507843017578,
        0.3511419892311096,
        -9.015174865722656
      ],
      "type": "VEC3"
    },
    {
      "bufferView": 3,
      "byteOffset": 90096,
      "componentType": 5126,
      "count": 4690,
      "max": [
        0.999005138874054,
        0.9997557997703552,
        0.9994421005249023
      ],
      "min": [
        -0.9997795224189758,
        -0.9999756217002869,
        -0.999823272228241
      ],
      "type": "VEC3"
    },
    {
      "bufferView": 2,
      "byteOffset": 11272,
      "componentType": 5126,
      "count": 4690,
      "max": [
        0.9980079531669617,
        0.9458903670310974
      ],
      "min": [
        0.0019920319318771362,
        0.001888004713691771
      ],
      "type": "VEC2"
    },
    {
      "bufferView": 1,
      "byteOffset": 28368,
      "componentType": 5125,
      "count": 23424,
      "type": "SCALAR"
    },
    {
      "bufferView": 3,
      "byteOffset": 146376,
      "componentType": 5126,
      "count": 4582,
      "max": [
        4.26700496673584,
        1.1032698154449463,
        4.776007652282715
      ],
      "min": [
        -4.262609004974365,
        0.19076135754585266,
        -1.1658686399459839
      ],
      "type": "VEC3"
    },
    {
      "bufferView": 3,
      "byteOffset": 201360,
      "componentType": 5126,
      "count": 4582,
      "max": [
        0.9991568922996521,
        0.9999048709869385,
        0.9964261054992676
      ],
      "min": [
        -0.9993857145309448,
        -0.9999998807907104,
        -0.9988504648208618
      ],
      "type": "VEC3"
    },
    {
      "bufferView": 2,
      "byteOffset": 48792,
      "componentType": 5126,
      "count": 4582,
      "max": [
        0.9980079531669617,
        0.9380669593811035
      ],
      "min": [
        0.031148636713624,
        0.7077400088310242
      ],
      "type": "VEC2"
    },
    {
      "bufferView": 1,
      "byteOffset": 122064,
      "componentType": 5125,
      "count": 23220,
      "type": "SCALAR"
    },
    {
      "bufferView": 3,
      "byteOffset": 256344,
      "componentType": 5126,
      "count": 1390,
      "max": [
        5.892285346984863,
        24.466041564941406,
        7.4716925621032715
      ],
      "min": [
        -5.993505477905273,
        18.720144271850586,
        0.7106256484985352
      ],
      "type": "VEC3"
    },
    {
      "bufferView": 3,
      "byteOffset": 273024,
      "componentType": 5126,
      "count": 1390,
      "max": [
        0.9934169054031372,
        0.9919106960296631,
        0.9983311891555786
      ],
      "min": [
        -0.9934163689613342,
        -0.9940805435180664,
        -0.9850363731384277
      ],
      "type": "VEC3"
    },
    {
      "bufferView": 2,
      "byteOffset": 85448,
      "componentType": 5126,
      "count": 1390,
      "max": [
        0.9980079531669617,
        0.9442895650863647
      ],
      "min": [
        0.15393923223018646,
        0.535370945930481
      ],
      "type": "VEC2"
    },
    {
      "bufferView": 1,
      "byteOffset": 214944,
      "componentType": 5125,
      "count": 5652,
      "type": "SCALAR"
    },
    {
      "bufferView": 5,
      "componentType": 5126,
      "count": 17,
      "max": [
        1.0,
        1.0,
        1.4659144268793272e-17,
        0.0,
        1.0,
        1.0,
        0.0,
        0.0,
        0.0,
        0.0,
        1.0,
        0.0,
        17.029563903808594,
        2.1659109592437744,
        0.7091699838638306,
        1.0
      ],
      "min": [
        -0.998274028301239,
        -1.0,
        0.0,
        0.0,
        -1.0,
        6.123234262925839e-17,
        -1.2225335053817684e-16,
        0.0,
        -3.0814879110195774e-33,
        -1.2246468525851679e-16,
        -1.0,
        0.0,
        -18.309825897216797,
        -13.384106636047363,
        -4.258053779602051,
        1.0
      ],
      "type": "MAT4"
    },
    {
      "bufferView": 0,
      "componentType": 5123,
      "count": 1409,
      "type": "VEC4"
    },
    {
      "bufferView": 4,
      "componentType": 5126,
      "count": 1409,
      "max": [
        1.0,
        0.0,
        0.0,
        0.0
      ],
      "min": [
        1.0,
        0.0,
        0.0,
        0.0
      ],
      "type": "VEC4"
    },
    {
      "bufferView": 0,
      "byteOffset": 11272,
      "componentType": 5123,
      "count": 4690,
      "type": "VEC4"
    },
    {
      "bufferView": 4,
      "byteOffset": 22544,
      "componentType": 5126,
      "count": 4690,
      "max": [
        1.0,
        0.49977970123291016,
        0.3116026818752289,
        0.12062445282936096
      ],
      "min": [
        0.36033329367637634,
        0.0,
        0.0,
        0.0
      ],
      "type": "VEC4"
    },
    {
      "bufferView": 0,
      "byteOffset": 48792,
      "componentType": 5123,
      "count": 4582,
      "type": "VEC4"
    },
    {
      "bufferView": 4,
      "byteOffset": 97584,
      "componentType": 5126,
      "count": 4582,
      "max": [
        1.0,
        0.5,
        0.11931364983320236,
        0.02812032960355282
      ],
      "min": [
        0.49227282404899597,
        0.0,
        0.0,
        0.0
      ],
      "type": "VEC4"
    },
    {
      "bufferView": 0,
      "byteOffset": 85448,
      "componentType": 5123,
      "count": 1390,
      "type": "VEC4"
    },
    {
      "bufferView": 4,
      "byteOffset": 170896,
      "componentType": 5126,
      "count": 1390,
      "max": [
        1.0,
        0.0,
        0.0,
        0.0
      ],
      "min": [
        1.0,
        0.0,
        0.0,
        0.0
      ],
      "type": "VEC4"
    }
  ],
  "asset": {
    "extras": {
      "author": "Ines (https://sketchfab.com/inessaid)",
      "license": "CC-BY-4.0 (http://creativecommons.org/licenses/by/4.0/)",
      "source": "https://sketchfab.com/3d-models/celeste-animal-crossing-new-horizons-2f328b60753b4b88b246fe18963d98e5",
      "title": "Celeste - Animal Crossing New Horizons"
    },
    "generator": "Sketchfab-12.65.0",
    "version": "2.0"
  },
  "bufferViews": [
    {
      "buffer": 0,
      "byteLength": 96568,
      "byteStride": 8,
      "name": "shortBufferViews",
      "target": 34962
    },
    {
      "buffer": 0,
      "byteLength": 237552,
      "byteOffset": 96568,
      "name": "floatBufferViews",
      "target": 34963
    },
    {
      "buffer": 0,
      "byteLength": 96568,
      "byteOffset": 334120,
      "byteStride": 8,
      "name": "floatBufferViews",
      "target": 34962
    },
    {
      "buffer": 0,
      "byteLength": 289704,
      "byteOffset": 430688,
      "byteStride": 12,
      "name": "floatBufferViews",
      "target": 34962
    },
    {
      "buffer": 0,
      "byteLength": 193136,
      "byteOffset": 720392,
      "byteStride": 16,
      "name": "floatBufferViews",
      "target": 34962
    },
    {
      "buffer": 0,
      "byteLength": 1088,
      "byteOffset": 913528,
      "name": "floatBufferViews"
    }
  ],
  "buffers": [
    {
      "byteLength": 914616,
      "uri": "scene.bin"
    }
  ],
  "images": [
    {
      "uri": "textures/material_baseColor.png"
    },
    {
      "uri": "textures/lambert2_baseColor.png"
    },
    {
      "uri": "textures/FEET1_baseColor.png"
    },
    {
      "uri": "textures/material_3_baseColor.png"
    }
  ],
  "materials": [
    {
      "doubleSided": true,
      "name": "material",
      "pbrMetallicRoughness": {
        "baseColorTexture": {
          "index": 0
        },
        "metallicFactor": 0.0,
        "roughnessFactor": 0.6
      }
    },
    {
      "doubleSided": true,
      "name": "lambert2",
      "pbrMetallicRoughness": {
        "baseColorTexture": {
          "index": 1
        },
        "metallicFactor": 0.0,
        "roughnessFactor": 0.6
      }
    },
    {
      "doubleSided": true,
      "name": "FEET1",
      "pbrMetallicRoughness": {
        "baseColorTexture": {
          "index": 2
        },
        "metallicFactor": 0.0,
        "roughnessFactor": 0.6
      }
    },
    {
      "doubleSided": true,
      "name": "material_3",
      "pbrMetallicRoughness": {
        "baseColorTexture": {
          "index": 3
        },
        "metallicFactor": 0.0,
        "roughnessFactor": 0.6
      }
    }
  ],
  "meshes": [
    {
      "name": "MeshMain_bow_0",
      "primitives": [
        {
          "attributes": {
            "JOINTS_0": 17,
            "NORMAL": 1,
            "POSITION": 0,
            "TEXCOORD_0": 2,
            "WEIGHTS_0": 18
          },
          "indices": 3,
          "material": 0,
          "mode": 4
        }
      ]
    },
    {
      "name": "MeshMain_lambert2_0",
      "primitives": [
        {
          "attributes": {
            "JOINTS_0": 19,
            "NORMAL": 5,
            "POSITION": 4,
            "TEXCOORD_0": 6,
            "WEIGHTS_0": 20
          },
          "indices": 7,
          "material": 1,
          "mode": 4
        }
      ]
    },
    {
      "name": "MeshMain_FEET1_0",
      "primitives": [
        {
          "attributes": {
            "JOINTS_0": 21,
            "NORMAL": 9,
            "POSITION": 8,
            "TEXCOORD_0": 10,
            "WEIGHTS_0": 22
          },
          "indices": 11,
          "material": 2,
          "mode": 4
        }
      ]
    },
    {
      "name": "MeshMain_eye_0",
      "primitives": [
        {
          "attributes": {
            "JOINTS_0": 23,
            "NORMAL": 13,
            "POSITION": 12,
            "TEXCOORD_0": 14,
            "WEIGHTS_0": 24
          },
          "indices": 15,
          "material": 3,
          "mode": 4
        }
      ]
    }
  ],
  "nodes": [
    {
      "children": [
        1
      ],
      "matrix": [
        1.0,
        0.0,
        0.0,
        0.0,
        0.0,
        3.828568672208042e-16,
        -1.0,
        0.0,
        0.0,
        1.0,
        3.828568672208042e-16,
        0.0,
        8.881784197001252e-16,
        4.930380657631324e-31,
        -2.220446049250313e-15,
        1.0
      ],
      "name": "Sketchfab_model"
    },
    {
      "children": [
        2
      ],
      "matrix": [
        1.0,
        0.0,
        0.0,
        0.0,
        0.0,
        0.0,
        1.0,
        0.0,
        0.0,
        -1.0,
        0.0,
        0.0,
        0.0,
        0.0,
        0.0,
        1.0
      ],
      "name": "48e8249060294c50813b31b763184834.fbx"
    },
    {
      "children": [
        3
      ],
      "name": "RootNode"
    },
    {
      "children": [
        4,
        6,
        7,
        8,
        9,
        5,
        26,
        29
      ],
      "name": "Object_3"
    },
    {
      "children": [
        10
      ],
      "name": "_rootJoint"
    },
    {
      "matrix": [
        1.0,
        -8.79169527767299e-34,
        0.0,
        0.0,
        8.79169527767299e-34,
        1.0,
        0.0,
        0.0,
        0.0,
        0.0,
        1.0,
        0.0,
        0.0,
        0.0,
        0.0,
        1.0
      ],
      "name": "Object_5"
    },
    {
      "mesh": 0,
      "name": "Object_6",
      "skin": 0
    },
    {
      "mesh": 1,
      "name": "Object_7",
      "skin": 0
    },
    {
      "mesh": 2,
      "name": "Object_8",
      "skin": 0
    },
    {
      "mesh": 3,
      "name": "Object_9",
      "skin": 0
    },
    {
      "children": [
        11,
        20,
        23
      ],
      "name": "HipRoot_064",
      "rotation": [
        -0.0637672170996666,
        -0.0637672170996666,
        0.7042256593704224,
        0.7042256593704224
      ],
      "translation": [
        -0.11246738582849503,
        8.882182121276855,
        0.7091703414916992
      ]
    },
    {
      "children": [
        12,
        15,
        18
      ],
      "name": "Chest_065",
      "rotation": [
        0.6860313415527344,
        0.7275720238685608,
        3.5030337935457173e-17,
        5.210439464356838e-17
      ],
      "translation": [
        3.664825439453125,
        4.163336342344337e-17,
        1.1102230246251565e-16
      ]
    },
    {
      "children": [
        13
      ],
      "name": "RightWing_066",
      "rotation": [
        0.22994574904441833,
        0.5760297775268555,
        -0.4182753264904022,
        0.6635965704917908
      ],
      "translation": [
        5.915576934814453,
        0.18408402800559998,
        -1.1104897260665894
      ]
    },
    {
      "children": [
        14
      ],
      "name": "RightWing_2_067",
      "rotation": [
        0.07397381961345673,
        0.6415715217590332,
        -0.26642632484436035,
        0.7154935002326965
      ],
      "translation": [
        6.209360122680664,
        -2.3092638912203256e-14,
        8.881784197001252e-16
      ]
    },
    {
      "name": "RightWing_3_068",
      "rotation": [
        0.0815633088350296,
        0.9783828854560852,
        0.1900130659341812,
        -0.0030715595930814743
      ],
      "translation": [
        4.572280406951904,
        -0.12190568447113037,
        -0.17223605513572693
      ]
    },
    {
      "children": [
        16
      ],
      "name": "LeftWing_069",
      "rotation": [
        -0.4906247556209564,
        0.8574714660644531,
        -0.15499885380268097,
        -0.002312133554369211
      ],
      "translation": [
        -6.81549596786499,
        -0.5975808501243591,
        2.220446049250313e-16
      ]
    },
    {
      "children": [
        17
      ],
      "name": "LeftWing_2_070",
      "rotation": [
        -0.0049437605775892735,
        0.082638680934906,
        0.12234669178724289,
        0.9890286922454834
      ],
      "translation": [
        6.603744029998779,
        0.6920250058174133,
        -0.2831284999847412
      ]
    },
    {
      "name": "LeftWing_3_071",
      "rotation": [
        0.0003518227895256132,
        0.09049771726131439,
        0.13467934727668762,
        0.9867480397224426
      ],
      "translation": [
        5.030393123626709,
        0.6849308013916016,
        -0.37266233563423157
      ]
    },
    {
      "children": [
        19
      ],
      "name": "Neck_072",
      "rotation": [
        0.5636583566665649,
        0.8232972025871277,
        -0.0551753006875515,
        -0.037774961441755295
      ],
      "translation": [
        -0.06148741766810417,
        1.6025158166885376,
        2.220446049250313e-16
      ]
    },
    {
      "name": "Head_073",
      "rotation": [
        2.432105181554698e-18,
        2.4742527221012657e-18,
        -0.7010065913200378,
        0.7131547927856445
      ],
      "translation": [
        9.521159172058105,
        0.13086730241775513,
        -1.1102230246251565e-16
      ]
    },
    {
      "children": [
        21
      ],
      "name": "RightLeg_074",
      "rotation": [
        0.0,
        0.0,
        0.9999827146530151,
        -0.0058820475824177265
      ],
      "translation": [
        -5.431795120239258,
        2.0941860675811768,
        1.1102230246251565e-16
      ]
    },
    {
      "children": [
        22
      ],
      "name": "RightLeg_2_075",
      "rotation": [
        1.9607011129562912e-17,
        -1.964575130637122e-17,
        0.7029353380203247,
        0.7112537622451782
      ],
      "translation": [
        2.7815332412719727,
        0.0,
        -1.1102230246251565e-16
      ]
    },
    {
      "name": "RightLeg_3_076",
      "rotation": [
        -6.162975822039155e-33,
        -0.0,
        2.229119666630197e-16,
        1.0
      ],
      "translation": [
        0.027058493345975876,
        0.025436338037252426,
        3.3675742149353027
      ]
    },
    {
      "children": [
        24
      ],
      "name": "LeftLeg_077",
      "rotation": [
        -0.5401670336723328,
        0.0045137046836316586,
        0.8375086784362793,
        -0.08233121037483215
      ],
      "translation": [
        -5.36635160446167,
        -2.1596293449401855,
        1.1102230246251565e-16
      ]
    },
    {
      "children": [
        25
      ],
      "name": "LeftLeg_2_078",
      "rotation": [
        -0.18135115504264832,
        -0.18135115504264832,
        0.683455765247345,
        0.683455765247345
      ],
      "translation": [
        2.8140623569488525,
        0.0,
        0.0
      ]
    },
    {
      "name": "LeftLeg_3_079",
      "rotation": [
        -5.551115123125783e-17,
        -0.0,
        0.0,
        1.0
      ],
      "translation": [
        0.1483079344034195,
        -0.007285317871719599,
        3.5488831996917725
      ]
    },
    {
      "children": [
        27
      ],
      "matrix": [
        0.10000000149011612,
        0.0,
        0.0,
        0.0,
        0.0,
        2.2204460823375376e-17,
        0.10000000149011612,
        0.0,
        0.0,
        -0.10000000149011612,
        2.2204460823375376e-17,
        0.0,
        0.0,
        0.0,
        0.0,
        1.0
      ],
      "name": "Infinite_Light_1"
    },
    {
      "children": [
        28
      ],
      "matrix": [
        1.0,
        0.0,
        0.0,
        0.0,
        0.0,
        2.220446049250313e-16,
        1.0,
        0.0,
        0.0,
        -1.0,
        2.220446049250313e-16,
        0.0,
        0.0,
        0.0,
        0.0,
        1.0
      ],
      "name": "Object_27"
    },
    {
      "name": "Object_28"
    },
    {
      "children": [
        30
      ],
      "matrix": [
        0.10000000149011612,
        0.0,
        0.0,
        0.0,
        0.0,
        2.2204460823375376e-17,
        0.10000000149011612,
        0.0,
        0.0,
        -0.10000000149011612,
        2.2204460823375376e-17,
        0.0,
        0.0,
        0.0,
        0.0,
        1.0
      ],
      "name": "Image_Based_Light_1"
    },
    {
      "children": [
        31
      ],
      "matrix": [
        1.0,
        0.0,
        0.0,
        0.0,
        0.0,
        2.220446049250313e-16,
        1.0,
        0.0,
        0.0,
        -1.0,
        2.220446049250313e-16,
        0.0,
        0.0,
        0.0,
        0.0,
        1.0
      ],
      "name": "Object_30"
    },
    {
      "name": "Object_31"
    }
  ],
  "samplers": [
    {
      "magFilter": 9729,
      "minFilter": 9987,
      "wrapS": 10497,
      "wrapT": 10497
    }
  ],
  "scene": 0,
  "scenes": [
    {
      "name": "Sketchfab_Scene",
      "nodes": [
        0
      ]
    }
  ],
  "skins": [
    {
      "inverseBindMatrices": 16,
      "joints": [
        4,
        10,
        11,
        12,
        13,
        14,
        15,
        16,
        17,
        18,
        19,
        20,
        21,
        22,
        23,
        24,
        25
      ],
      "skeleton": 4
    }
  ],
  "textures": [
    {
      "sampler": 0,
      "source": 0
    },
    {
      "sampler": 0,
      "source": 1
    },
    {
      "sampler": 0,
      "source": 2
    },
    {
      "sampler": 0,
      "source": 3
    }
  ]
}
